<svg width="800" height="471" viewBox="0 0 800 471" fill="none" xmlns="http://www.w3.org/2000/svg">
<rect width="800" height="470.515" fill="white" fill-opacity="0.1"/>
<path d="M157.167 245.504L175.974 200.434H176.264L185.82 245.504H157.167ZM197.255 299.453H228.099L198.142 169.532H163.004L102 299.453H134.634L145.203 274.137H191.903L197.255 299.453Z" fill="white"/>
<path d="M334.163 199.762H243.03L247.539 169.532H338.695L334.163 199.762ZM323.787 269.223H232.624L228.092 299.453H319.247L323.787 269.223Z" fill="white"/>
<path d="M235.576 219.373H320.291V249.604H235.576V219.373Z" fill="white"/>
<path d="M698 299.453L695.63 169.524H666.38L628.954 242.816L613.844 169.524H584.639L544.343 299.453H576.574L598.504 223.384L612.286 299.453H628.715L666.716 223.421L666.253 299.453H698ZM424.207 266.138C415.508 270.164 402.538 270.821 396.172 270.821C375.644 270.821 362.063 256.796 362.756 235.945C363.494 213.944 380.094 198.157 402.65 198.157C413.317 198.157 422.694 201.689 431.117 208.829L437.363 177.709C424.475 170.114 413.667 167 400.175 167C362.831 167 332.016 198.157 330.719 237.319C329.459 275.302 354.109 302 390.724 302C397.082 302 410.842 301.328 419.518 297.318L424.207 266.138ZM523.136 239.029C518.142 262.248 501.58 276.213 483.362 272.494C466.784 269.088 458.63 251.986 463.348 230.015C468.342 206.797 484.905 192.832 503.115 196.566C519.693 199.949 527.862 217.066 523.136 239.029ZM501.736 167.306C466.329 164.775 434.941 193.788 430.953 232.764C427.069 270.567 448.522 298.848 483.213 301.328C518.612 303.852 550.001 274.839 554.004 235.87C557.857 198.06 536.405 169.778 501.736 167.306Z" fill="white"/>
</svg>
