<svg width="800" height="471" viewBox="0 0 800 471" fill="none" xmlns="http://www.w3.org/2000/svg">
<rect width="800" height="470.515" fill="white" fill-opacity="0.1"/>
<path d="M669.635 290.394C669.635 281.997 663.67 275.849 655.453 275.849C647.25 275.849 641.278 281.997 641.278 290.394C641.278 298.776 647.25 304.914 655.453 304.914C663.67 304.914 669.635 298.766 669.635 290.394ZM651.727 291.139V300.64H648.652V279.691H656.293C660.77 279.691 662.824 281.643 662.824 285.448C662.824 287.791 661.237 289.648 659.193 289.917V290.005C660.968 290.288 661.62 291.868 661.985 294.76C662.265 296.634 662.636 299.883 663.305 300.646H659.668C658.821 298.678 658.907 295.891 658.255 293.558C657.716 291.783 656.767 291.136 654.73 291.136H651.744V291.146L651.727 291.139ZM655.539 288.432C658.525 288.432 659.378 286.844 659.378 285.444C659.378 283.789 658.525 282.481 655.539 282.481H651.727V288.438H655.539V288.432ZM637.896 290.394C637.896 280.049 646.124 273.056 655.44 273.056C664.783 273.056 673 280.049 673 290.394C673 300.718 664.786 307.718 655.44 307.718C646.124 307.718 637.896 300.718 637.896 290.394Z" fill="#EBEBEB"/>
<path d="M577.097 304.696L556.872 282.055L536.824 304.696H494.64L535.869 258.46L494.64 212.209H538.141L558.571 234.677L578.23 212.209H620.21L579.186 258.266L620.78 304.696H577.097ZM413.636 304.696V159H494.64V191.475H447.948V212.209H494.64V243.458H447.948V272.139H494.64V304.696H413.636Z" fill="#EBEBEB"/>
<path d="M379.45 159V218.627H379.072C371.506 209.948 362.051 206.923 351.086 206.923C328.619 206.923 311.694 222.18 305.753 242.334C298.975 220.122 281.5 206.507 255.593 206.507C234.549 206.507 217.937 215.932 209.26 231.295V212.206H165.768V191.479H213.235V159.007H127V304.696H165.768V243.458H204.411C203.22 248.168 202.625 253.007 202.64 257.864C202.64 288.241 225.895 309.588 255.587 309.588C280.545 309.588 297.007 297.88 305.705 276.567H272.478C267.987 282.981 264.575 284.875 255.59 284.875C245.175 284.875 236.187 275.801 236.187 265.058H303.842C306.776 289.191 325.613 310 351.465 310C362.617 310 372.827 304.526 379.068 295.278H379.444V304.717H413.626V159.007H379.45V159ZM237.265 243.895C239.425 234.636 246.615 228.587 255.59 228.587C265.472 228.587 272.297 234.449 274.089 243.895H237.265ZM358.706 282.525C346.111 282.525 338.283 270.811 338.283 258.576C338.283 245.495 345.094 232.93 358.706 232.93C372.83 232.93 378.457 245.502 378.457 258.576C378.457 270.968 372.499 282.525 358.706 282.525Z" fill="#EBEBEB"/>
</svg>
