<svg width="800" height="471" viewBox="0 0 800 471" fill="none" xmlns="http://www.w3.org/2000/svg">
<rect width="800" height="470.515" fill="white" fill-opacity="0.1"/>
<path fill-rule="evenodd" clip-rule="evenodd" d="M211.321 230.472H271.123V303.505H259.2L254.704 285.733C245.52 298.624 228.322 307.02 209.757 307.02C186.306 307.02 174.972 298.428 167.934 291.594C147.026 271.867 146.438 248.634 146.438 234.183C146.438 200.985 166.567 163.494 211.122 163.494C236.526 163.494 264.861 177.945 268.771 208.603H250.985C245.122 184.778 225.189 179.897 210.141 179.897C185.715 179.897 165.586 199.425 165.586 235.16C165.586 262.886 174.577 291.202 210.926 291.202C217.764 291.202 228.709 290.424 238.872 282.61C250.792 273.049 253.92 260.94 253.92 246.293H211.321V230.472V230.472ZM312.746 303.505H295.941V204.111H312.746V303.505ZM295.938 186.148V167.205H312.743V186.148H295.938ZM356.519 217.976V303.505H339.91V217.976H326.23V204.113H339.91V187.122C339.91 172.089 349.288 165.253 365.707 165.253C368.05 165.253 370.592 165.446 373.328 165.645V180.681C371.178 180.488 368.442 180.289 366.489 180.289C359.258 180.289 356.522 183.804 356.522 191.811V204.113H373.328V217.976H356.519V217.976ZM413.191 217.976V303.505H396.386V217.976H382.705V204.113H396.386V187.122C396.386 172.089 405.96 165.253 422.179 165.253C424.721 165.253 427.263 165.446 429.805 165.645V180.681C427.653 180.488 425.111 180.289 422.964 180.289C415.733 180.289 413.191 183.804 413.191 191.811V204.113H429.805V217.976H413.191V217.976ZM525.754 272.262C525.168 276.947 520.676 291.009 507.974 299.405C503.475 302.531 497.029 306.241 481 306.241C453.256 306.241 436.641 285.153 436.641 256.445C436.641 225.79 451.49 201.38 484.324 201.38C513.049 201.38 527.122 224.031 527.122 259.175H454.422C454.422 279.877 464.201 291.791 483.349 291.791C499.173 291.791 508.36 279.684 508.946 272.262H525.754ZM509.731 245.901C508.756 230.472 502.304 216.22 481.981 216.22C466.737 216.22 454.422 230.472 454.422 245.901H509.731ZM558.392 303.505H541.584V167.205H558.392V303.505ZM634.214 232.427C634.018 226.179 631.678 215.635 610.568 215.635C605.489 215.635 590.831 217.391 590.831 229.691C590.831 237.894 595.915 239.846 608.808 242.971L625.613 247.267C646.331 252.342 653.562 259.954 653.562 273.43C653.562 293.933 636.558 306.239 614.281 306.239C574.808 306.239 572.075 283.386 571.484 271.475H587.703C588.098 279.286 590.441 291.788 614.091 291.788C626.011 291.788 636.757 287.097 636.757 276.16C636.757 268.159 631.286 265.42 617.02 261.908L597.672 257.027C583.796 253.711 574.612 246.676 574.612 233.01C574.612 211.14 592.787 201.374 612.331 201.374C647.892 201.374 650.243 227.54 650.243 232.424H634.214V232.427V232.427Z" fill="white"/>
</svg>
