<svg width="800" height="471" viewBox="0 0 800 471" fill="none" xmlns="http://www.w3.org/2000/svg">
<rect width="800" height="470.515" fill="white" fill-opacity="0.1"/>
<path fill-rule="evenodd" clip-rule="evenodd" d="M134.454 267.971L134.125 203.215C129.828 206.85 121.898 208.996 113.807 208.996V280.853C120.58 273.918 128.011 269.452 134.454 267.971ZM113.807 205.196V172.984C127.352 172.984 138.75 180.086 138.75 189.005C138.75 197.761 127.519 205.029 113.97 205.196H113.807V205.196ZM113.807 208.996C106.536 209.159 98.938 207.342 93.1573 203.542L93.9827 331.565C93.8163 309.594 102.905 291.922 113.807 280.853V208.996V208.996ZM113.807 172.984V205.196C100.263 205.196 89.0273 198.094 89.0273 189.171C89.024 180.416 100.259 173.147 113.807 172.984ZM513.409 265.325L512.916 200.57C508.62 204.037 500.853 206.35 492.759 206.35V265.488L513.409 265.325V265.325ZM492.759 202.387V170.339C506.304 170.339 517.536 177.44 517.705 186.196C517.705 195.119 506.473 202.387 492.929 202.387H492.759V202.387ZM492.759 206.35C485.491 206.35 477.893 204.696 472.109 200.733L472.442 265.488H492.759V206.35ZM492.759 170.339V202.387C479.214 202.387 467.982 195.285 467.982 186.529C467.982 177.607 479.214 170.339 492.759 170.339ZM253.891 202.387L224.652 202.55C234.396 202.55 246.29 210.48 246.952 218.74L253.888 218.574L254.221 267.142L295.025 266.973L294.858 218.408H306.257C313.195 207.339 329.549 201.888 336.984 201.888L294.692 202.054L294.363 138.949C294.526 174.469 270.741 198.423 253.891 202.387V202.387Z" fill="white"/>
<path fill-rule="evenodd" clip-rule="evenodd" d="M205.652 220.395L205.819 267.642L243.977 267.472L243.811 223.7C243.811 202.72 198.88 198.094 184.011 209V203.053L145.356 203.219L145.852 268.138L184.011 267.805L183.685 220.558C184.51 213.952 205.323 211.969 205.652 220.395ZM467.649 221.716V201.396C458.401 201.396 451.133 203.709 446.174 207.343L446.011 201.396L407.52 201.725L407.853 266.481L446.014 266.148L445.845 228.485C446.344 223.037 455.426 216.924 467.649 221.716V221.716ZM711.646 193.465C671.663 192.64 668.532 195.778 651.516 206.185V200.404L613.025 200.57L613.358 265.326L651.519 265.163L651.35 236.745C652.345 231.79 653.995 226.672 656.138 223.863C667.044 210.152 678.113 196.44 711.646 193.465ZM362.752 208.664C360.439 208.331 357.135 208.168 353.83 208.168V201.725C381.419 201.562 404.045 215.932 404.045 233.773C404.215 237.408 403.057 241.211 401.24 244.513L353.83 244.676V238.566L362.915 238.396L362.752 208.664ZM353.833 266.484V259.875H354C364.902 259.875 375.971 256.736 383.402 251.621H383.073L395.463 251.452C386.54 260.377 371.345 266.318 354.166 266.487L353.833 266.484V266.484ZM353.833 208.168C350.529 208.168 347.227 208.331 344.748 208.83L344.914 238.566H353.833V244.676H344.914V259.216C347.886 259.548 350.861 259.871 353.833 259.871V266.481C326.411 266.481 303.781 252.111 303.781 234.266C303.614 216.425 326.244 201.722 353.67 201.722H353.833V208.168V208.168ZM563.961 195.615C589.233 195.452 609.883 212.135 610.053 232.452C610.216 252.936 589.736 269.785 564.456 269.955C539.184 270.118 518.534 253.432 518.364 233.115C518.201 212.631 538.851 195.781 563.961 195.615Z" fill="white"/>
<path fill-rule="evenodd" clip-rule="evenodd" d="M563.791 206.518C567.595 206.518 570.733 218.412 570.896 233.115C570.896 247.654 567.924 259.549 564.124 259.549C560.327 259.712 557.188 247.654 557.019 233.115C557.019 218.578 559.997 206.518 563.791 206.518Z" fill="#1F3F5F"/>
</svg>
