<svg width="800" height="471" viewBox="0 0 800 471" fill="none" xmlns="http://www.w3.org/2000/svg">
<rect width="800" height="470.515" fill="white" fill-opacity="0.1"/>
<path fill-rule="evenodd" clip-rule="evenodd" d="M286.482 184.109C293.053 184.109 299.028 189.73 300.822 195.973L302.616 203.471V294.018C300.822 299.633 297.24 305.881 291.264 307.75L282.9 309.005H226.14C220.764 309.005 215.383 307.132 212.395 302.134C210.006 299.015 210.006 295.264 209.407 292.144V197.223C210.601 192.226 213.589 187.233 218.37 185.355L223.152 184.105H286.482V184.109ZM269.749 212.21H241.669V279.658H270.349L269.749 212.21ZM147.266 157.254V279.653H196.856V309H114.404V157.254H147.266ZM582.828 157.254V192.853H554.748V157.254H582.828ZM659.309 194.722V220.322C653.932 218.449 647.362 214.707 641.986 212.829C632.427 209.082 617.483 204.085 610.318 211.578C607.92 213.452 607.326 216.576 607.326 219.077C609.119 227.821 618.678 229.066 624.649 233.436C639.583 239.684 659.899 250.915 661.692 270.272C665.28 284.641 659.899 297.75 649.746 306.495C630.025 323.355 578.646 305.239 578.646 305.239V276.515C578.646 276.515 612.697 289.634 621.061 288.379C625.843 287.756 630.025 285.26 631.818 280.885C632.423 277.143 632.423 273.391 630.025 270.263C613.297 257.777 591.791 255.903 580.439 235.3C575.063 224.06 575.063 208.445 582.233 197.832C591.791 182.845 607.321 178.475 624.054 180.348C641.981 182.859 659.309 194.722 659.309 194.722ZM401.796 279.658H419.119V184.109H452.58V290.271C452.58 297.142 448.993 304.631 442.427 307.75L435.852 309.005H395.815C391.633 308.382 387.451 303.389 385.063 299.638C382.075 305.254 380.281 309.005 374.31 309.005H336.072C333.084 308.382 331.886 308.382 330.097 307.132C326.509 305.258 320.534 302.757 320.534 290.271V184.109H353.395V279.658H371.322V184.109H401.796V279.658ZM547.578 212.21H503.364V232.813H547.578V260.924H503.364V279.658H547.578V309.005H470.507V184.109H547.578V212.21ZM665.874 193.476C665.874 187.233 670.656 182.859 676.037 182.859C680.818 182.859 685.595 187.233 685.595 193.476C685.595 199.097 680.818 203.471 676.037 203.471C670.656 203.471 665.874 199.097 665.874 193.476ZM676.037 201.593C680.219 201.593 683.801 198.469 683.801 193.476C683.801 188.484 680.214 184.732 676.037 184.732C671.255 184.732 667.668 188.479 667.668 193.476C667.668 198.474 671.251 201.593 676.037 201.593ZM673.648 199.097H671.855V187.233H676.037C679.029 187.233 680.219 188.484 680.219 190.98C680.219 192.853 679.029 193.476 677.236 194.104L680.823 199.097H678.425L675.442 194.104H673.648V199.097ZM676.037 192.853C677.236 192.853 678.425 192.226 678.425 190.352C678.425 189.102 677.236 189.102 676.037 189.102H673.648V192.849H676.037V192.853Z" fill="white"/>
</svg>
