<svg width="512" height="512" viewBox="0 0 512 512" fill="none" xmlns="http://www.w3.org/2000/svg">
<path d="M496 8H192C189.878 8 187.843 8.84285 186.343 10.3431C184.843 11.8434 184 13.8783 184 16V249.6L163.152 240.664C162.157 240.231 161.085 240.005 160 240H63.9999C51.0603 240.009 38.5231 244.499 28.5195 252.707C18.5159 260.914 11.6634 272.333 9.12658 285.021C6.58981 297.71 8.52541 310.886 14.6044 322.308C20.6833 333.731 30.5305 342.696 42.4719 347.68L16.2719 445.936C16.0876 446.608 15.9961 447.303 15.9999 448V472C15.9999 480.487 19.3714 488.626 25.3725 494.627C31.3737 500.629 39.513 504 47.9999 504H95.9999C104.487 504 112.626 500.629 118.627 494.627C124.629 488.626 128 480.487 128 472V448C128 446.683 127.675 445.387 127.054 444.226C126.433 443.065 125.535 442.075 124.44 441.344V441.344C118.755 437.527 114.36 432.079 111.833 425.716C109.305 419.352 108.764 412.373 110.28 405.696L113.44 392H120C128.604 392.019 136.934 388.976 143.499 383.415C150.064 377.854 154.436 370.138 155.832 361.648L157.44 352H160C161.084 351.997 162.157 351.774 163.152 351.344L184 342.4V496C184 498.122 184.843 500.157 186.343 501.657C187.843 503.157 189.878 504 192 504H496C498.122 504 500.157 503.157 501.657 501.657C503.157 500.157 504 498.122 504 496V16C504 13.8783 503.157 11.8434 501.657 10.3431C500.157 8.84285 498.122 8 496 8ZM208 277.272V314.728L168 331.872V260.128L208 277.272ZM23.9999 296C24.0116 286.782 27.2007 277.851 33.0297 270.71C38.8587 263.569 46.9712 258.657 55.9999 256.8V296H71.9999V256H87.9999V296H104V256H120V296H136V256H152V336H63.9999C53.3952 335.987 43.2284 331.769 35.7297 324.27C28.231 316.772 24.0126 306.605 23.9999 296V296ZM63.9999 352H106.248L94.6879 402.096C93.235 408.543 93.0794 415.214 94.2304 421.722C95.3814 428.229 97.8158 434.443 101.392 440H34.3999L57.9679 351.664C59.9714 351.881 61.9848 351.993 63.9999 352ZM112 472C112 476.243 110.314 480.313 107.314 483.314C104.313 486.314 100.243 488 95.9999 488H47.9999C43.7565 488 39.6868 486.314 36.6862 483.314C33.6856 480.313 31.9999 476.243 31.9999 472V456H112V472ZM140.048 359.008C139.267 363.759 136.822 368.078 133.149 371.191C129.476 374.304 124.815 376.009 120 376H117.136L122.672 352H141.216L140.048 359.008ZM200 335.56L216 328.704V488H200V335.56ZM456 488H232V328H240C247.074 327.973 253.939 325.604 259.523 321.262C265.108 316.919 269.096 310.849 270.864 304H320V288H270.864C269.096 281.151 265.108 275.081 259.523 270.738C253.939 266.396 247.074 264.027 240 264H232V56H456V488ZM224 280H240C244.243 280 248.313 281.686 251.314 284.686C254.314 287.687 256 291.757 256 296C256 300.243 254.314 304.313 251.314 307.314C248.313 310.314 244.243 312 240 312H224V280ZM488 488H472V48C472 45.8783 471.157 43.8434 469.657 42.3431C468.157 40.8429 466.122 40 464 40H224C221.878 40 219.843 40.8429 218.343 42.3431C216.843 43.8434 216 45.8783 216 48V263.296L200 256.44V24H488V488Z" fill="#93A1AD"/>
<path d="M272 248H416C418.122 248 420.157 247.157 421.657 245.657C423.157 244.157 424 242.122 424 240V168C424 146.783 415.571 126.434 400.569 111.431C385.566 96.4285 365.217 88 344 88C322.783 88 302.434 96.4285 287.431 111.431C272.429 126.434 264 146.783 264 168V240C264 242.122 264.843 244.157 266.343 245.657C267.843 247.157 269.878 248 272 248ZM280 176H336V232H280V176ZM352 232V176H408V232H352ZM407.448 160H352V104.552C366.079 106.347 379.163 112.766 389.198 122.802C399.234 132.837 405.653 145.921 407.448 160ZM336 104.552V160H280.552C282.347 145.921 288.766 132.837 298.802 122.802C308.837 112.766 321.921 106.347 336 104.552V104.552Z" fill="#93A1AD"/>
<path d="M416 336H272C269.878 336 267.843 336.843 266.343 338.343C264.843 339.843 264 341.878 264 344V456C264 458.122 264.843 460.157 266.343 461.657C267.843 463.157 269.878 464 272 464H416C418.122 464 420.157 463.157 421.657 461.657C423.157 460.157 424 458.122 424 456V344C424 341.878 423.157 339.843 421.657 338.343C420.157 336.843 418.122 336 416 336ZM408 392H352V352H408V392ZM336 352V392H280V352H336ZM280 408H336V448H280V408ZM352 448V408H408V448H352Z" fill="#93A1AD"/>
</svg>
